<?xml version="1.0" encoding="UTF-8"?>
<svg width="64" height="64" viewBox="0 0 64 64" fill="none" xmlns="http://www.w3.org/2000/svg">
  <!-- Lab Flask -->
  <path d="M24 8h16v12l8 20c0 6-4 10-10 10H26c-6 0-10-4-10-10l8-20V8z" 
        fill="#009688" stroke="#00796B" stroke-width="2"/>
  
  <!-- Flask neck -->
  <rect x="28" y="4" width="8" height="8" fill="#009688" stroke="#00796B" stroke-width="1.5"/>
  
  <!-- Liquid inside -->
  <path d="M26 36c0 2 1.5 4 6 4s6-2 6-4l-4-10H30l-4 10z" 
        fill="#4DB6AC" opacity="0.7"/>
  
  <!-- Data nodes -->
  <circle cx="32" cy="32" r="2" fill="#FFFFFF"/>
  <circle cx="26" cy="28" r="1.5" fill="#FFFFFF" opacity="0.8"/>
  <circle cx="38" cy="28" r="1.5" fill="#FFFFFF" opacity="0.8"/>
  <circle cx="32" cy="24" r="1.5" fill="#FFFFFF" opacity="0.8"/>
  
  <!-- Connection lines -->
  <line x1="32" y1="32" x2="26" y2="28" stroke="#FFFFFF" stroke-width="0.5" opacity="0.6"/>
  <line x1="32" y1="32" x2="38" y2="28" stroke="#FFFFFF" stroke-width="0.5" opacity="0.6"/>
  <line x1="32" y1="32" x2="32" y2="24" stroke="#FFFFFF" stroke-width="0.5" opacity="0.6"/>
  
  <!-- FHIR symbol hint (cross) -->
  <path d="M48 12h4v4h-4zm2-2v2m0 4v2m-2-4h2m4 0h2" 
        stroke="#00BCD4" stroke-width="1.5" stroke-linecap="round"/>
</svg>
